<svg id="Layer_1" data-name="Layer 1" xmlns="http://www.w3.org/2000/svg" viewBox="0 0 179.39 80.33"><defs><style>.cls-1{fill:#fff;fill-rule:evenodd;}</style></defs><title>Icon-White</title><path class="cls-1" d="M169,78.35ZM98,78.35V60.06a7.11,7.11,0,0,0,0-14.21V2.06a29.85,29.85,0,0,1,4.91-.41,28.86,28.86,0,0,1,25.35,15.09l2.21,4.08,4.6.59A24.14,24.14,0,0,1,153.15,34l2,3.78,4.21.84A22.59,22.59,0,0,1,169,78.35H98ZM98,2.06V45.85a7.1,7.1,0,0,0-6.75,4.9h-8.1V41a7.11,7.11,0,0,0,0-14.21V9.44l.17-.17,1.63-1.39a28.38,28.38,0,0,1,4.15-2.7,32,32,0,0,1,6-2.46A29.32,29.32,0,0,1,98,2.06Zm0,58V78.35H83.11V55.16h8.1A7.1,7.1,0,0,0,98,60.06ZM83.11,9.44V26.79a7.09,7.09,0,0,0-5,2.08,7,7,0,0,0-1.73,2.82h-2.2V23.22h.14L77,17.81a28.83,28.83,0,0,1,3.33-5.26l0-.06a28.65,28.65,0,0,1,2.78-3.05Zm0,31.56v9.75h-9V36.1h2.2a7,7,0,0,0,1.73,2.82,7.09,7.09,0,0,0,5,2.08Zm0,14.16V78.35h-9v-3a7.1,7.1,0,0,0,0-14.2v-6Zm-9-31.94v8.47H34.85a2.22,2.22,0,0,1-2.21-2.2h0a2.22,2.22,0,0,1,2.21-2.21H50.6a30.1,30.1,0,0,1,15.82-4.47l1.85.06,5.89.35Zm0,12.88V50.75H26.4V46.34H36.93A30.11,30.11,0,0,1,41.37,36.1H74.16Zm0,19.06v6a7,7,0,0,0-5,2.08A6.91,6.91,0,0,0,67.41,66h-41V61.62h11a30.16,30.16,0,0,1-1.16-6.46H74.16Zm0,20.18v3H49.83a30.23,30.23,0,0,1-8.15-7.91H67.41a7.1,7.1,0,0,0,6.75,4.9ZM26.4,31.69V27.28a2.21,2.21,0,0,1,0,4.41Zm0-4.41v4.41h0a2.21,2.21,0,1,1,0-4.41Zm0,19.06v4.41H14.27V46.34Zm0,15.28V66H22.76a2.21,2.21,0,0,1-2.21-2.2h0a2.21,2.21,0,0,1,2.21-2.21ZM14.27,66V61.62a2.21,2.21,0,1,1,0,4.41Zm0-19.69v4.41H11.49a2.21,2.21,0,0,1-2.2-2.21h0a2.21,2.21,0,0,1,2.2-2.2Zm0,15.28V66a2.21,2.21,0,1,1,0-4.41ZM3.53,50.75a2.21,2.21,0,1,0-2.21-2.21A2.21,2.21,0,0,0,3.53,50.75Z"/></svg>